; NON-PLATED HOLES START AT T1
; THROUGH (PLATED) HOLES START AT T100
M48
INCH
T100C0.015748
T101C0.035433
T102C0.038000
T103C0.038556
T104C0.040000
%
T100
X042629Y038711
X042629Y005711
X058629Y038711
X058629Y005711
T101
X055629Y020711
X057629Y020711
X056629Y027711
X056629Y025711
T102
X051629Y031711
X051629Y034711
X051629Y035711
X056629Y018711
X051629Y036711
X051629Y033711
X056629Y017711
X051629Y037711
X056629Y016711
X051629Y032711
T103
X052629Y013711
X053629Y015711
X052629Y018711
X052629Y017712
X052629Y023711
X052629Y020711
X053629Y009709
X053629Y019712
X053629Y014711
X053629Y025711
X052629Y026711
X053629Y023711
X053629Y017712
X052629Y022712
X053629Y011716
X052629Y011716
X052629Y015711
X052629Y008711
X053629Y020711
X053629Y024712
X052629Y024712
X053629Y012711
X052629Y014711
X052629Y012711
X053629Y021711
X052629Y027713
X053629Y016711
X052629Y025711
X052629Y021712
X052629Y010712
X052629Y016711
X053629Y008711
X052629Y009709
X052615Y019712
X053629Y018713
X053629Y027712
X053629Y022712
X053629Y010712
X053629Y026711
X053629Y013711
T104
X045629Y027711
X045629Y028711
X045629Y024711
X045629Y020711
X045629Y023711
X045629Y029711
X045629Y026711
X045629Y022711
X045629Y025711
X045629Y021711
T00
M30
