G04 MADE WITH FRITZING*
G04 WWW.FRITZING.ORG*
G04 DOUBLE SIDED*
G04 HOLES PLATED*
G04 CONTOUR ON CENTER OF CONTOUR VECTOR*
%ASAXBY*%
%FSLAX23Y23*%
%MOIN*%
%OFA0B0*%
%SFA1.0B1.0*%
%ADD10C,0.087444*%
%ADD11C,0.084000*%
%ADD12C,0.088000*%
%ADD13C,0.085433*%
%ADD14C,0.049370*%
%ADD15R,0.084000X0.084000*%
%ADD16R,0.088000X0.088000*%
%LNMASK0*%
G90*
G70*
G54D10*
X5263Y2771D03*
X5263Y2671D03*
X5263Y2571D03*
X5263Y2471D03*
X5263Y2371D03*
X5263Y2271D03*
X5263Y2171D03*
X5263Y2071D03*
X5262Y1971D03*
X5263Y1871D03*
X5263Y1771D03*
X5263Y1671D03*
X5263Y1571D03*
X5263Y1471D03*
X5263Y1371D03*
X5263Y1271D03*
X5263Y1172D03*
X5263Y1071D03*
X5263Y971D03*
X5263Y871D03*
X5363Y871D03*
X5363Y971D03*
X5363Y1071D03*
X5363Y1172D03*
X5363Y1271D03*
X5363Y1371D03*
X5363Y1471D03*
X5363Y1571D03*
X5363Y1671D03*
X5363Y1771D03*
X5363Y1871D03*
X5363Y1971D03*
X5363Y2071D03*
X5363Y2171D03*
X5363Y2271D03*
X5363Y2371D03*
X5363Y2471D03*
X5363Y2571D03*
X5363Y2671D03*
X5363Y2771D03*
G54D11*
X4563Y2071D03*
X4563Y2171D03*
X4563Y2271D03*
X4563Y2371D03*
X4563Y2471D03*
X4563Y2571D03*
X4563Y2671D03*
X4563Y2771D03*
X4563Y2871D03*
X4563Y2971D03*
G54D12*
X5163Y3771D03*
X5163Y3671D03*
X5163Y3571D03*
X5163Y3471D03*
X5163Y3371D03*
X5163Y3271D03*
X5163Y3171D03*
X5663Y1871D03*
X5663Y1771D03*
X5663Y1671D03*
G54D13*
X5663Y2571D03*
X5663Y2771D03*
G54D14*
X5863Y571D03*
X5863Y3871D03*
X4263Y3871D03*
X4263Y571D03*
G54D13*
X5563Y2071D03*
X5763Y2071D03*
G54D15*
X4563Y2071D03*
G54D16*
X5163Y3771D03*
X5663Y1871D03*
G04 End of Mask0*
M02*